<svg width="512" height="512" viewBox="0 0 512 512" fill="none" xmlns="http://www.w3.org/2000/svg">
  <!-- Stacked Plates -->
  <!-- Bottom Plate -->
  <path d="M256 380L128 320L256 260L384 320L256 380Z" fill="#374151"/>
  <path d="M128 320V350L256 410L384 350V320" stroke="#374151" stroke-width="20" stroke-linejoin="round"/>
  <path d="M128 350L256 410L384 350" fill="#374151"/>

  <!-- Middle Plate -->
  <path d="M256 310L128 250L256 190L384 250L256 310Z" fill="#9CA3AF"/>
  <path d="M128 250V280L256 340L384 280V250" stroke="#9CA3AF" stroke-width="20" stroke-linejoin="round"/>
  <path d="M128 280L256 340L384 280" fill="#9CA3AF"/>

  <!-- Top Plate -->
  <path d="M256 240L128 180L256 120L384 180L256 240Z" fill="#D1D5DB"/>
  <path d="M128 180V210L256 270L384 210V180" stroke="#D1D5DB" stroke-width="20" stroke-linejoin="round"/>
  <path d="M128 210L256 270L384 210" fill="#D1D5DB"/>

  <!-- Star -->
  <g transform="translate(256, 150)">
    <path d="M0 -90 L24 -30 L90 -30 L40 10 L60 75 L0 40 L-60 75 L-40 10 L-90 -30 L-24 -30 Z" fill="#EF4444" stroke="#EF4444" stroke-width="10" stroke-linejoin="round"/>
  </g>
</svg>
